<svg width="150" height="60" viewBox="0 0 150 60" fill="none" xmlns="http://www.w3.org/2000/svg">
<g clip-path="url(#clip0)">
<path d="M150 34.1477H0V59.0426H150V34.1477Z" fill="#DD0A14"/>
<path d="M131.818 34.1477L98.0504 7.29751L65.8014 0L107.788 34.1477H131.818Z" fill="#DD0A14"/>
<path d="M68.2141 5.87647L63.6364 1.7202L20.1314 34.1477H28.576H30.5149L68.2141 5.87647Z" fill="#DD0A14"/>
<path d="M66.2322 14.392H59.0909V21.4759H66.2322V14.392Z" fill="#DD0A14"/>
<path d="M74.8492 14.392H67.7079V21.4759H74.8492V14.392Z" fill="#DD0A14"/>
<path d="M66.2322 22.9396H59.0909V30.0234H66.2322V22.9396Z" fill="#DD0A14"/>
<path d="M74.8492 22.9396H67.7079V30.0234H74.8492V22.9396Z" fill="#DD0A14"/>
<path d="M37.0099 17.0738L43.9358 12.0201V4.93623H37.0099V17.0738Z" fill="#DD0A14"/>
<path d="M23.3843 38.4642C23.8712 38.4226 24.3615 38.4767 24.8273 38.6234C25.2931 38.7701 25.7251 39.0064 26.0987 39.319C26.4064 39.6823 26.6382 40.1028 26.7806 40.5559C26.9229 41.0089 26.9731 41.4856 26.9281 41.958V42.5029C27.0108 43.1081 26.907 43.7239 26.6301 44.2694C26.3532 44.8148 25.9164 45.2643 25.377 45.5587C26.5726 46.0181 27.165 47.0973 27.165 48.7641V49.9928C27.1979 50.4784 27.1329 50.9657 26.9739 51.4261C26.8148 51.8866 26.5649 52.311 26.2387 52.6746C25.8708 52.9995 25.4412 53.2482 24.9751 53.406C24.5089 53.5638 24.0157 53.6275 23.5243 53.5935H19.7652V38.4642H23.3843ZM23.3197 40.6011H22.1672V44.6078H23.1043C23.3001 44.6226 23.4969 44.5971 23.6823 44.5327C23.8677 44.4683 24.0376 44.3666 24.1814 44.2338C24.4615 43.8879 24.5931 43.4465 24.5476 43.0051V42.2038C24.5476 41.1567 24.1383 40.6011 23.3197 40.6011ZM23.2335 46.7661H22.1564V51.4245H23.5351C23.7061 51.4393 23.8783 51.4173 24.04 51.3602C24.2017 51.303 24.3491 51.212 24.4722 51.0933C24.7 50.7649 24.8065 50.3687 24.7738 49.9714V48.6572C24.8255 48.1502 24.7001 47.641 24.4184 47.2148C24.2606 47.0685 24.0736 46.9568 23.8695 46.8868C23.6653 46.8169 23.4487 46.7903 23.2335 46.8088V46.7661Z" fill="white"/>
<path d="M33.3262 47.9841H35.5989V49.9928C35.6656 51.0175 35.3385 52.0292 34.6833 52.8242C34.3328 53.1652 33.9137 53.429 33.4534 53.5984C32.9931 53.7678 32.502 53.8389 32.0121 53.8072C31.5237 53.8394 31.0341 53.7685 30.5754 53.599C30.1168 53.4296 29.6996 53.1655 29.3516 52.8242C28.6916 52.0318 28.3638 51.0181 28.436 49.9928V42.1076C28.3655 41.0857 28.6932 40.076 29.3516 39.2869C29.6984 38.9439 30.1154 38.6787 30.5743 38.5091C31.0333 38.3396 31.5235 38.2696 32.0121 38.3039C32.5022 38.2694 32.9942 38.3393 33.4549 38.5088C33.9156 38.6784 34.3344 38.9437 34.6833 39.2869C35.3368 40.0786 35.6639 41.0864 35.5989 42.1076V43.5821H33.3262V41.958C33.3262 40.9644 32.9061 40.4622 32.0767 40.4622C31.2473 40.4622 30.838 40.9644 30.838 41.958V50.1531C30.838 51.136 31.2473 51.6168 32.0767 51.6168C32.9061 51.6168 33.3262 51.136 33.3262 50.1531V47.9841Z" fill="white"/>
<path d="M39.4658 40.6011V44.8749H42.7617V47.0118H39.4658V51.4459H43.6127V53.5828H37.0638V38.4642H43.6127V40.6011H39.4658Z" fill="white"/>
<path d="M57.8091 55.6769H55.4287V53.6362H50.2908V55.6769H47.9535V51.51H48.8906C49.2915 50.9327 49.4988 50.2448 49.483 49.544L50.0323 38.4642H56.7535V51.4993H57.8307L57.8091 55.6769ZM52.2835 40.6011L51.8419 49.4586C51.8733 50.1882 51.6316 50.9037 51.1633 51.4672H54.3085V40.6011H52.2835Z" fill="white"/>
<path d="M58.4554 53.6576V51.5207C58.8661 51.5681 59.2807 51.4738 59.6295 51.2536C59.8835 50.8724 59.9941 50.4147 59.9418 49.9607L60.3188 38.4642H67.1047V53.6362H64.6812V40.6011H62.5916L62.3223 49.7577C62.3828 50.8177 62.0748 51.8662 61.4498 52.728C61.1012 53.0504 60.6877 53.2961 60.2367 53.449C59.7856 53.6018 59.307 53.6583 58.8324 53.6148L58.4554 53.6576Z" fill="white"/>
<path d="M70.9716 53.6362H68.5265C68.728 53.0451 68.8157 52.4217 68.785 51.7984V49.4585C68.785 47.749 69.3236 46.6806 70.3791 46.2532C69.8351 45.9571 69.3938 45.5049 69.1132 44.9558C68.8326 44.4067 68.7257 43.7864 68.8066 43.1761V41.958C68.7305 41.005 69.0362 40.0606 69.6575 39.3296C70.031 39.0171 70.4631 38.7808 70.9288 38.6341C71.3946 38.4874 71.885 38.4333 72.3718 38.4749H75.991V53.6362H73.589V47.4605H72.7596C72.5391 47.4408 72.3169 47.471 72.1098 47.5487C71.9028 47.6264 71.7161 47.7497 71.564 47.9093C71.2739 48.3484 71.1411 48.8715 71.187 49.3944V51.7771C71.2127 52.4041 71.14 53.0313 70.9716 53.6362ZM73.589 40.6011H72.4365C71.6178 40.6011 71.2085 41.1139 71.2085 42.161V43.6462C71.1692 44.0903 71.3 44.5328 71.5748 44.8856C71.7198 45.0159 71.8902 45.1153 72.0754 45.1778C72.2607 45.2403 72.4568 45.2645 72.6519 45.2488H73.589V40.6011Z" fill="white"/>
<path d="M86.6114 53.6362L84.274 47.5888L83.5308 48.9777V53.6362H81.1288V38.4642H83.5308V45.0672L86.676 38.4642H89.078L85.7389 45.2168L89.078 53.6255L86.6114 53.6362Z" fill="white"/>
<path d="M93.7096 38.4642C96.0865 38.4642 97.2785 39.7143 97.2857 42.2145V44.1804C97.2857 46.6806 96.0936 47.9307 93.7096 47.9307H92.5679V53.6362H90.1659V38.4642H93.7096ZM93.7096 40.6011H92.5679V45.7297H93.7096C93.8713 45.7415 94.0337 45.7191 94.186 45.6638C94.3383 45.6085 94.477 45.5217 94.5928 45.4091C94.8081 45.0955 94.9105 44.7191 94.8837 44.3407V42.0649C94.9131 41.6862 94.8104 41.309 94.5928 40.9964C94.4839 40.8703 94.3482 40.7695 94.1956 40.7012C94.043 40.6329 93.877 40.5987 93.7096 40.6011Z" fill="white"/>
<path d="M98.2012 49.9928V42.1076C98.1241 41.0918 98.4443 40.0855 99.0952 39.2976C99.8479 38.6657 100.802 38.319 101.788 38.319C102.774 38.319 103.728 38.6657 104.481 39.2976C105.147 40.0791 105.483 41.0861 105.418 42.1076V49.9928C105.485 51.0178 105.149 52.0287 104.481 52.8135C103.728 53.4453 102.774 53.792 101.788 53.792C100.802 53.792 99.8479 53.4453 99.0952 52.8135C98.4426 52.0223 98.1224 51.0121 98.2012 49.9928ZM100.603 41.958V50.153C100.603 51.1467 101.023 51.6382 101.853 51.6382C102.682 51.6382 103.091 51.1467 103.091 50.153V41.958C103.091 40.9644 102.682 40.4622 101.853 40.4622C101.023 40.4622 100.603 40.9644 100.603 41.958Z" fill="white"/>
<path d="M110.674 38.4642C111.16 38.4217 111.649 38.4754 112.113 38.6221C112.577 38.7689 113.007 39.0058 113.378 39.319C113.688 39.6794 113.923 40.0973 114.069 40.5485C114.215 40.9997 114.269 41.4752 114.229 41.9473V42.4923C114.311 43.0961 114.208 43.7106 113.933 44.2556C113.659 44.8006 113.225 45.251 112.689 45.548C113.873 46.0075 114.477 47.0866 114.477 48.7534V49.9821C114.509 50.4677 114.444 50.955 114.285 51.4154C114.126 51.8759 113.876 52.3003 113.55 52.6639C113.18 52.9886 112.749 53.2371 112.281 53.3948C111.813 53.5526 111.318 53.6165 110.825 53.5828H107.044V38.4642H110.674ZM110.61 40.6011H109.446V44.6078H110.394C110.59 44.6214 110.786 44.5952 110.972 44.5309C111.157 44.4666 111.327 44.3655 111.471 44.2338C111.743 43.8838 111.87 43.4446 111.827 43.0051V42.2038C111.827 41.1567 111.428 40.6011 110.61 40.6011ZM110.523 46.7661H109.446V51.4245H110.825C110.996 51.4393 111.168 51.4173 111.33 51.3602C111.492 51.303 111.639 51.212 111.762 51.0933C112.004 50.7547 112.114 50.3415 112.075 49.9287V48.6572C112.131 48.1484 112.001 47.6366 111.708 47.2148C111.551 47.0674 111.364 46.9549 111.16 46.8849C110.956 46.8149 110.739 46.7889 110.523 46.8088V46.7661Z" fill="white"/>
<path d="M115.252 53.6576V51.5207C115.659 51.5683 116.071 51.4738 116.415 51.2536C116.669 50.872 116.783 50.4156 116.738 49.9607L117.115 38.4642H123.869V53.6362H121.413V40.6011H119.324L119.065 49.7577C119.117 50.8184 118.806 51.8653 118.182 52.728C117.833 53.0504 117.42 53.2961 116.969 53.449C116.518 53.6018 116.039 53.6583 115.564 53.6148L115.252 53.6576Z" fill="white"/>
<path d="M130.213 46.6806L128.178 53.6362H125.711V38.4642H127.865V48.0802L128.738 44.7467L130.72 38.4642H133.358V53.6362H131.204V42.9517L130.213 46.6806Z" fill="white"/>
</g>
<defs>
<clipPath id="clip0">
<rect width="150" height="59.0426" fill="white"/>
</clipPath>
</defs>
</svg>
