<svg width="150.00000000000003" height="60" xmlns="http://www.w3.org/2000/svg">
 <defs>
  <clipPath id="clip0">
   <rect id="svg_1" fill="white" height="59.0426" width="150"/>
  </clipPath>
 </defs>
 <g>
  <title>background</title>
  <rect fill="none" id="canvas_background" height="402" width="582" y="-1" x="-1"/>
 </g>
 <g>
  <title>Layer 1</title>
  <g fill="#DD0A14" id="svg_2" clip-path="url(#clip0)">
   <path id="svg_3" fill="#DD0A14" d="m150,34.1477l-150,0l0,24.8949l150,0l0,-24.8949z"/>
   <path id="svg_4" fill="#DD0A14" d="m131.818,34.1477l-33.7676,-26.85019l-32.249,-7.29751l41.9866,34.1477l24.03,0z"/>
   <path id="svg_5" fill="#DD0A14" d="m68.2141,5.87647l-4.5777,-4.15627l-43.505,32.4275l8.4446,0l1.9389,0l37.6992,-28.27123z"/>
   <path id="svg_6" fill="#DD0A14" d="m66.2322,14.392l-7.1413,0l0,7.0839l7.1413,0l0,-7.0839z"/>
   <path id="svg_7" fill="#DD0A14" d="m74.8492,14.392l-7.1413,0l0,7.0839l7.1413,0l0,-7.0839z"/>
   <path id="svg_8" fill="#DD0A14" d="m66.2322,22.9396l-7.1413,0l0,7.0838l7.1413,0l0,-7.0838z"/>
   <path id="svg_9" fill="#DD0A14" d="m74.8492,22.9396l-7.1413,0l0,7.0838l7.1413,0l0,-7.0838z"/>
   <path id="svg_10" fill="#DD0A14" d="m37.0099,17.0738l6.9259,-5.0537l0,-7.08387l-6.9259,0l0,12.13757z"/>
   <path id="svg_11" fill="white" d="m23.3843,38.4642c0.4869,-0.0416 0.9772,0.0125 1.443,0.1592c0.4658,0.1467 0.8978,0.383 1.2714,0.6956c0.3077,0.3633 0.5395,0.7838 0.6819,1.2369c0.1423,0.453 0.1925,0.9297 0.1475,1.4021l0,0.5449c0.0827,0.6052 -0.0211,1.221 -0.298,1.7665c-0.2769,0.5454 -0.7137,0.9949 -1.2531,1.2893c1.1956,0.4594 1.788,1.5386 1.788,3.2054l0,1.2287c0.0329,0.4856 -0.0321,0.9729 -0.1911,1.4333c-0.1591,0.4605 -0.409,0.8849 -0.7352,1.2485c-0.3679,0.3249 -0.7975,0.5736 -1.2636,0.7314c-0.4662,0.1578 -0.9594,0.2215 -1.4508,0.1875l-3.7591,0l0,-15.1293l3.6191,0zm-0.0646,2.1369l-1.1525,0l0,4.0067l0.9371,0c0.1958,0.0148 0.3926,-0.0107 0.578,-0.0751c0.1854,-0.0644 0.3553,-0.1661 0.4991,-0.2989c0.2801,-0.3459 0.4117,-0.7873 0.3662,-1.2287l0,-0.8013c0,-1.0471 -0.4093,-1.6027 -1.2279,-1.6027zm-0.0862,6.165l-1.0771,0l0,4.6584l1.3787,0c0.171,0.0148 0.3432,-0.0072 0.5049,-0.0643c0.1617,-0.0572 0.3091,-0.1482 0.4322,-0.2669c0.2278,-0.3284 0.3343,-0.7246 0.3016,-1.1219l0,-1.3142c0.0517,-0.507 -0.0737,-1.0162 -0.3554,-1.4424c-0.1578,-0.1463 -0.3448,-0.258 -0.5489,-0.328c-0.2042,-0.0699 -0.4208,-0.0965 -0.636,-0.078l0,-0.0427z"/>
   <path id="svg_12" fill="white" d="m33.3262,47.9841l2.2727,0l0,2.0087c0.0667,1.0247 -0.2604,2.0364 -0.9156,2.8314c-0.3505,0.341 -0.7696,0.6048 -1.2299,0.7742c-0.4603,0.1694 -0.9514,0.2405 -1.4413,0.2088c-0.4884,0.0322 -0.978,-0.0387 -1.4367,-0.2082c-0.4586,-0.1694 -0.8758,-0.4335 -1.2238,-0.7748c-0.66,-0.7924 -0.9878,-1.8061 -0.9156,-2.8314l0,-7.8852c-0.0705,-1.0219 0.2572,-2.0316 0.9156,-2.8207c0.3468,-0.343 0.7638,-0.6082 1.2227,-0.7778c0.459,-0.1695 0.9492,-0.2395 1.4378,-0.2052c0.4901,-0.0345 0.9821,0.0354 1.4428,0.2049c0.4607,0.1696 0.8795,0.4349 1.2284,0.7781c0.6535,0.7917 0.9806,1.7995 0.9156,2.8207l0,1.4745l-2.2727,0l0,-1.6241c0,-0.9936 -0.4201,-1.4958 -1.2495,-1.4958c-0.8294,0 -1.2387,0.5022 -1.2387,1.4958l0,8.1951c0,0.9829 0.4093,1.4637 1.2387,1.4637c0.8294,0 1.2495,-0.4808 1.2495,-1.4637l0,-2.169z"/>
   <path id="svg_13" fill="white" d="m39.4658,40.6011l0,4.2738l3.2959,0l0,2.1369l-3.2959,0l0,4.4341l4.1469,0l0,2.1369l-6.5489,0l0,-15.1186l6.5489,0l0,2.1369l-4.1469,0z"/>
   <path id="svg_14" fill="white" d="m57.8091,55.6769l-2.3804,0l0,-2.0407l-5.1379,0l0,2.0407l-2.3373,0l0,-4.1669l0.9371,0c0.4009,-0.5773 0.6082,-1.2652 0.5924,-1.966l0.5493,-11.0798l6.7212,0l0,13.0351l1.0772,0l-0.0216,4.1776zm-5.5256,-15.0758l-0.4416,8.8575c0.0314,0.7296 -0.2103,1.4451 -0.6786,2.0086l3.1452,0l0,-10.8661l-2.025,0z"/>
   <path id="svg_15" fill="white" d="m58.4554,53.6576l0,-2.1369c0.4107,0.0474 0.8253,-0.0469 1.1741,-0.2671c0.254,-0.3812 0.3646,-0.8389 0.3123,-1.2929l0.377,-11.4965l6.7859,0l0,15.172l-2.4235,0l0,-13.0351l-2.0896,0l-0.2693,9.1566c0.0605,1.06 -0.2475,2.1085 -0.8725,2.9703c-0.3486,0.3224 -0.7621,0.5681 -1.2131,0.721c-0.4511,0.1528 -0.9297,0.2093 -1.4043,0.1658l-0.377,0.0428z"/>
   <path id="svg_16" fill="white" d="m70.9716,53.6362l-2.4451,0c0.2015,-0.5911 0.2892,-1.2145 0.2585,-1.8378l0,-2.3399c0,-1.7095 0.5386,-2.7779 1.5941,-3.2053c-0.544,-0.2961 -0.9853,-0.7483 -1.2659,-1.2974c-0.2806,-0.5491 -0.3875,-1.1694 -0.3066,-1.7797l0,-1.2181c-0.0761,-0.953 0.2296,-1.8974 0.8509,-2.6284c0.3735,-0.3125 0.8056,-0.5488 1.2713,-0.6955c0.4658,-0.1467 0.9562,-0.2008 1.443,-0.1592l3.6192,0l0,15.1613l-2.402,0l0,-6.1757l-0.8294,0c-0.2205,-0.0197 -0.4427,0.0105 -0.6498,0.0882c-0.207,0.0777 -0.3937,0.201 -0.5458,0.3606c-0.2901,0.4391 -0.4229,0.9622 -0.377,1.4851l0,2.3827c0.0257,0.627 -0.047,1.2542 -0.2154,1.8591zm2.6174,-13.0351l-1.1525,0c-0.8187,0 -1.228,0.5128 -1.228,1.5599l0,1.4852c-0.0393,0.4441 0.0915,0.8866 0.3663,1.2394c0.145,0.1303 0.3154,0.2297 0.5006,0.2922c0.1853,0.0625 0.3814,0.0867 0.5765,0.071l0.9371,0l0,-4.6477z"/>
   <path id="svg_17" fill="white" d="m86.6114,53.6362l-2.3374,-6.0474l-0.7432,1.3889l0,4.6585l-2.402,0l0,-15.172l2.402,0l0,6.603l3.1452,-6.603l2.402,0l-3.3391,6.7526l3.3391,8.4087l-2.4666,0.0107z"/>
   <path id="svg_18" fill="white" d="m93.7096,38.4642c2.3769,0 3.5689,1.2501 3.5761,3.7503l0,1.9659c0,2.5002 -1.1921,3.7503 -3.5761,3.7503l-1.1417,0l0,5.7055l-2.402,0l0,-15.172l3.5437,0zm0,2.1369l-1.1417,0l0,5.1286l1.1417,0c0.1617,0.0118 0.3241,-0.0106 0.4764,-0.0659c0.1523,-0.0553 0.291,-0.1421 0.4068,-0.2547c0.2153,-0.3136 0.3177,-0.69 0.2909,-1.0684l0,-2.2758c0.0294,-0.3787 -0.0733,-0.7559 -0.2909,-1.0685c-0.1089,-0.1261 -0.2446,-0.2269 -0.3972,-0.2952c-0.1526,-0.0683 -0.3186,-0.1025 -0.486,-0.1001z"/>
   <path id="svg_19" fill="white" d="m98.2012,49.9928l0,-7.8852c-0.0771,-1.0158 0.2431,-2.0221 0.894,-2.81c0.7527,-0.6319 1.7068,-0.9786 2.6928,-0.9786c0.986,0 1.94,0.3467 2.693,0.9786c0.666,0.7815 1.002,1.7885 0.937,2.81l0,7.8852c0.067,1.025 -0.269,2.0359 -0.937,2.8207c-0.753,0.6318 -1.707,0.9785 -2.693,0.9785c-0.986,0 -1.9401,-0.3467 -2.6928,-0.9785c-0.6526,-0.7912 -0.9728,-1.8014 -0.894,-2.8207zm2.4018,-8.0348l0,8.195c0,0.9937 0.42,1.4852 1.25,1.4852c0.829,0 1.238,-0.4915 1.238,-1.4852l0,-8.195c0,-0.9936 -0.409,-1.4958 -1.238,-1.4958c-0.83,0 -1.25,0.5022 -1.25,1.4958z"/>
   <path id="svg_20" fill="white" d="m110.674,38.4642c0.486,-0.0425 0.975,0.0112 1.439,0.1579c0.464,0.1468 0.894,0.3837 1.265,0.6969c0.31,0.3604 0.545,0.7783 0.691,1.2295c0.146,0.4512 0.2,0.9267 0.16,1.3988l0,0.545c0.082,0.6038 -0.021,1.2183 -0.296,1.7633c-0.274,0.545 -0.708,0.9954 -1.244,1.2924c1.184,0.4595 1.788,1.5386 1.788,3.2054l0,1.2287c0.032,0.4856 -0.033,0.9729 -0.192,1.4333c-0.159,0.4605 -0.409,0.8849 -0.735,1.2485c-0.37,0.3247 -0.801,0.5732 -1.269,0.7309c-0.468,0.1578 -0.963,0.2217 -1.456,0.188l-3.781,0l0,-15.1186l3.63,0zm-0.064,2.1369l-1.164,0l0,4.0067l0.948,0c0.196,0.0136 0.392,-0.0126 0.578,-0.0769c0.185,-0.0643 0.355,-0.1654 0.499,-0.2971c0.272,-0.35 0.399,-0.7892 0.356,-1.2287l0,-0.8013c0,-1.0471 -0.399,-1.6027 -1.217,-1.6027zm-0.087,6.165l-1.077,0l0,4.6584l1.379,0c0.171,0.0148 0.343,-0.0072 0.505,-0.0643c0.162,-0.0572 0.309,-0.1482 0.432,-0.2669c0.242,-0.3386 0.352,-0.7518 0.313,-1.1646l0,-1.2715c0.056,-0.5088 -0.074,-1.0206 -0.367,-1.4424c-0.157,-0.1474 -0.344,-0.2599 -0.548,-0.3299c-0.204,-0.07 -0.421,-0.096 -0.637,-0.0761l0,-0.0427z"/>
   <path id="svg_21" fill="white" d="m115.252,53.6576l0,-2.1369c0.407,0.0476 0.819,-0.0469 1.163,-0.2671c0.254,-0.3816 0.368,-0.838 0.323,-1.2929l0.377,-11.4965l6.754,0l0,15.172l-2.456,0l0,-13.0351l-2.089,0l-0.259,9.1566c0.052,1.0607 -0.259,2.1076 -0.883,2.9703c-0.349,0.3224 -0.762,0.5681 -1.213,0.721c-0.451,0.1528 -0.93,0.2093 -1.405,0.1658l-0.312,0.0428z"/>
   <path id="svg_22" fill="white" d="m130.213,46.6806l-2.035,6.9556l-2.467,0l0,-15.172l2.154,0l0,9.616l0.873,-3.3335l1.982,-6.2825l2.638,0l0,15.172l-2.154,0l0,-10.6845l-0.991,3.7289z"/>
  </g>
  <rect id="svg_23" height="20.425499" width="129.928872" y="35.822686" x="6.13486" stroke-width="0" fill="#DD0A14"/>
 </g>
</svg>